<svg viewBox="0 0 55 51" fill="none" xmlns="http://www.w3.org/2000/svg">
<path opacity="0.999" fill-rule="evenodd" clip-rule="evenodd" d="M11.9676 12.7762C13.7954 12.7853 15.5306 13.1438 17.1733 13.8519C17.7207 14.1405 18.2488 14.4553 18.7577 14.7963C19.1224 15.0818 19.4713 15.3879 19.8045 15.7145C20.1742 16.1275 20.5137 16.5648 20.823 17.0262C21.0158 17.3637 21.1856 17.7135 21.3323 18.0756C21.347 18.2815 21.4036 18.4739 21.502 18.6528C21.5804 18.9471 21.5992 19.2444 21.5586 19.5448C21.4461 19.6619 21.3046 19.7406 21.1342 19.7809C20.7363 19.7985 20.3402 19.8334 19.946 19.8858C18.6489 20.1088 17.3475 20.31 16.0417 20.4892C15.8508 20.4488 15.6905 20.3614 15.5607 20.2269C15.4386 19.8266 15.3255 19.4243 15.2212 19.0201C14.4282 17.4841 13.1173 16.8632 11.2886 17.1574C11.0226 17.2628 10.7585 17.3677 10.4964 17.4722C10.2549 17.6482 10.0192 17.8318 9.78908 18.0231C9.58622 18.3118 9.39757 18.6092 9.22324 18.9151C8.93341 19.6991 8.74482 20.5036 8.65739 21.3287C8.57574 22.874 8.63233 24.4132 8.82715 25.946C8.95899 26.3999 9.091 26.8546 9.22324 27.3102C9.40646 27.6377 9.61395 27.9526 9.84566 28.2546C10.9184 29.1893 12.1727 29.4604 13.6085 29.0679C14.6738 28.6745 15.3339 27.9575 15.589 26.9167C15.5743 26.8505 15.5366 26.798 15.4758 26.7593C14.4384 26.7418 13.401 26.7243 12.3637 26.7068C12.2457 26.666 12.142 26.6047 12.0525 26.5231C11.9877 25.9596 11.9594 25.3912 11.9676 24.8179C11.977 24.2844 11.9864 23.751 11.9959 23.2176C12.2233 23.0158 12.4968 22.9284 12.8163 22.9552C15.4754 22.9974 18.1348 23.0237 20.7947 23.034C21.1944 23.0262 21.5245 23.1574 21.785 23.4275C21.8038 23.4799 21.8227 23.5324 21.8416 23.5849C21.8793 26.733 21.8793 29.8812 21.8416 33.0293C21.7618 33.0968 21.6769 33.1581 21.5869 33.213C21.0588 33.248 20.5307 33.248 20.0026 33.213C19.8419 33.1122 19.6722 33.0248 19.4933 32.9506C19.0419 32.4273 18.6363 31.8764 18.2767 31.2978C18.2135 31.2126 18.1287 31.1602 18.0221 31.1404C17.49 31.5368 16.9619 31.9478 16.4377 32.3735C14.6002 33.4148 12.6009 33.782 10.4398 33.4753C6.30676 32.9127 3.56243 30.8052 2.20677 27.1528C1.12146 23.7933 1.42325 20.5577 3.11212 17.446C3.45216 16.9898 3.79167 16.5351 4.13064 16.0818C4.47958 15.7582 4.82851 15.4347 5.17745 15.1111C5.64109 14.7869 6.11262 14.4721 6.59206 14.1667C8.26215 13.3202 10.054 12.8568 11.9676 12.7762Z" fill="#00BD61"/>
<path opacity="0.999" fill-rule="evenodd" clip-rule="evenodd" d="M43.5983 12.7762C45.4431 12.7944 47.1972 13.153 48.8606 13.8519C50.8167 14.7907 52.1653 16.2161 52.9064 18.1281C53.0853 18.6113 53.2079 19.1097 53.2742 19.6235C53.1964 19.9573 52.9701 20.1147 52.5952 20.0957C50.8422 20.2079 49.0881 20.2779 47.3328 20.3056C47.281 20.2859 47.2338 20.2597 47.1914 20.2269C47.023 19.7425 46.8721 19.2527 46.7387 18.7577C46.5006 18.2681 46.1706 17.8396 45.7485 17.4722C44.2576 16.7495 42.9278 16.9332 41.7593 18.0231C41.0785 18.9893 40.7012 20.0562 40.6276 21.2238C40.453 22.9635 40.5285 24.695 40.8539 26.4182C40.9859 26.768 41.118 27.1178 41.25 27.4676C42.0439 28.7142 43.2227 29.2126 44.7865 28.963C45.7646 28.8286 46.604 28.4351 47.3045 27.7824C47.3935 27.5949 47.5255 27.4375 47.7006 27.3102C48.0139 26.7991 48.2969 26.2744 48.5494 25.7361C48.5918 25.7033 48.639 25.677 48.6908 25.6574C48.9738 25.6224 49.2567 25.6224 49.5396 25.6574C50.6145 25.8585 51.6897 26.0596 52.7649 26.2608C52.9283 26.3354 53.0981 26.3966 53.2742 26.4444C53.3421 26.4918 53.3893 26.553 53.4156 26.6281C53.4585 26.9634 53.4396 27.2957 53.3591 27.625C52.9667 28.5216 52.4669 29.3611 51.8596 30.1435C50.9684 31.084 49.9499 31.8797 48.804 32.5309C48.1716 32.8197 47.5115 33.0471 46.8236 33.213C44.1029 33.8167 41.4812 33.5719 38.9583 32.4784C37.9228 31.9064 36.9891 31.2156 36.1574 30.4059C35.8374 29.9879 35.5168 29.5681 35.1955 29.1466C33.8919 26.9876 33.3449 24.6614 33.5545 22.1682C33.579 19.9496 34.2958 17.9557 35.7047 16.1867C37.2512 14.4845 39.2033 13.4264 41.5612 13.0123C42.2478 12.9294 42.9268 12.8507 43.5983 12.7762Z" fill="#00BD61"/>
<path fill-rule="evenodd" clip-rule="evenodd" d="M25.0386 13.091C26.9063 13.1309 28.7735 13.1397 30.6404 13.1173C30.8819 13.1022 31.0423 13.1984 31.1214 13.4059C31.1591 19.8596 31.1591 26.3133 31.1214 32.767C31.0429 32.9914 30.8826 33.1401 30.6404 33.213C28.7166 33.248 26.7927 33.248 24.8688 33.213C24.7085 33.1343 24.5859 33.0206 24.501 32.8719C24.4633 26.4182 24.4633 19.9645 24.501 13.5108C24.5102 13.3966 24.5574 13.3005 24.6425 13.2222C24.7842 13.1856 24.9162 13.1419 25.0386 13.091Z" fill="#00BD61"/>
</svg>
